<svg xmlns="http://www.w3.org/2000/svg" width="1024" height="1024" viewBox="0 0 1024 1024">
  <!-- Background gradient -->
  <defs>
    <radialGradient id="bg" cx="50%" cy="50%" r="50%">
      <stop offset="0%" style="stop-color:#1a1a2e;stop-opacity:1" />
      <stop offset="100%" style="stop-color:#16213e;stop-opacity:1" />
    </radialGradient>
    <linearGradient id="cardGradient" x1="0%" y1="0%" x2="100%" y2="100%">
      <stop offset="0%" style="stop-color:#9333ea;stop-opacity:1" />
      <stop offset="50%" style="stop-color:#7c3aed;stop-opacity:1" />
      <stop offset="100%" style="stop-color:#6d28d9;stop-opacity:1" />
    </linearGradient>
    <linearGradient id="moonGradient" x1="0%" y1="0%" x2="100%" y2="100%">
      <stop offset="0%" style="stop-color:#fbbf24;stop-opacity:1" />
      <stop offset="100%" style="stop-color:#f59e0b;stop-opacity:1" />
    </linearGradient>
  </defs>
  
  <!-- Background -->
  <rect width="1024" height="1024" fill="url(#bg)" rx="180" ry="180"/>
  
  <!-- Card outline -->
  <rect x="200" y="150" width="624" height="724" fill="url(#cardGradient)" rx="60" ry="60" stroke="#ffffff" stroke-width="8"/>
  
  <!-- Inner card -->
  <rect x="230" y="180" width="564" height="664" fill="rgba(255,255,255,0.1)" rx="40" ry="40"/>
  
  <!-- Mystical symbols -->
  <!-- Crescent moon -->
  <path d="M512 250 C570 250 615 295 615 353 C615 410 570 455 512 455 C540 455 565 440 581 417 C568 430 550 438 530 438 C480 438 440 398 440 348 C440 298 480 258 530 258 C550 258 568 266 581 279 C565 256 540 241 512 241 Z" fill="url(#moonGradient)"/>
  
  <!-- Stars -->
  <g fill="#ffffff" opacity="0.8">
    <circle cx="350" cy="320" r="6"/>
    <circle cx="674" cy="320" r="6"/>
    <circle cx="300" cy="450" r="4"/>
    <circle cx="724" cy="450" r="4"/>
    <circle cx="320" cy="600" r="5"/>
    <circle cx="704" cy="600" r="5"/>
  </g>
  
  <!-- Central mystical eye -->
  <ellipse cx="512" cy="512" rx="120" ry="80" fill="#ffffff" opacity="0.9"/>
  <ellipse cx="512" cy="512" rx="80" ry="50" fill="#1a1a2e"/>
  <circle cx="512" cy="512" r="25" fill="#9333ea"/>
  <circle cx="512" cy="512" r="12" fill="#ffffff"/>
  
  <!-- Decorative elements -->
  <g stroke="#ffffff" stroke-width="3" fill="none" opacity="0.6">
    <!-- Top ornament -->
    <path d="M450 680 Q512 720 574 680"/>
    <path d="M460 700 Q512 735 564 700"/>
    
    <!-- Bottom ornament -->
    <path d="M450 750 Q512 780 574 750"/>
    <circle cx="512" cy="800" r="15" fill="#9333ea"/>
  </g>
  
  <!-- Corner decorations -->
  <g fill="#ffffff" opacity="0.3">
    <rect x="250" y="200" width="20" height="3"/>
    <rect x="259" y="191" width="3" height="20"/>
    
    <rect x="754" y="200" width="20" height="3"/>
    <rect x="771" y="191" width="3" height="20"/>
    
    <rect x="250" y="821" width="20" height="3"/>
    <rect x="259" y="813" width="3" height="20"/>
    
    <rect x="754" y="821" width="20" height="3"/>
    <rect x="771" y="813" width="3" height="20"/>
  </g>
</svg>